# xmcd
#
# Track frame offsets:
# 150
# 11528
# 29587
# 49474
# 67885
# 84946
# 88131
# 101312
# 113049
# 126263
# 131349
# 149341
# 169475
#
# Disc length: 2491 seconds
#
#
# Revision: 0
# Processed by: cddbd v1.5.2PL0 Copyright (c) Steve Scherf et al.
# Submitted via: FreeRIP 2.945 
#
DISCID=ae09b90d
DTITLE=Mike Gunther and his Restless Souls - Burn It Down for the Nails
DYEAR=2006
DGENRE=Blues
TTITLE0=No Leg to Stand On
TTITLE1=Walk All Over It
TTITLE2=I Don't Want to Know (What I Don't Want to Know)
TTITLE3=Easy Money
TTITLE4=11 Cents (Short)
TTITLE5=Make Way
TTITLE6=Water Into Wine
TTITLE7=Warning
TTITLE8=Every Night (Every Bastard)
TTITLE9=TR4
TTITLE10=The Best Policy
TTITLE11=Highwater
TTITLE12=You and Hymn
EXTD=
EXTT0=
EXTT1=
EXTT2=
EXTT3=
EXTT4=
EXTT5=
EXTT6=
EXTT7=
EXTT8=
EXTT9=
EXTT10=
EXTT11=
EXTT12=
PLAYORDER=
